<svg width="32" height="32" viewBox="0 0 456 456" fill="none" xmlns="http://www.w3.org/2000/svg">
<rect width="456" height="456" rx="40" fill="#004880"/>
<path d="M 76.298828,190.84473 V 174.21875 L 137.23633,150.48828 76.298828,126.68457 v -16.69922 l 75.219722,28.6377 v 23.58398 z" fill="white"/>
<path d="m 156.13281,218.31055 v -11.14012 h 86.20606 v 11.14012 z" fill="white"/>
<path d="m 164.18945,350.26367 q 0,15.16113 -11.27929,23.21778 -11.20606,7.98339 -32.95899,7.98339 -19.84863,0 -31.127928,-7.03125 -11.279297,-7.03125 -14.501953,-21.31347 l 20.874023,-3.44239 q 2.124024,8.20313 8.276368,11.93848 6.15234,3.66211 17.06543,3.66211 22.63184,0 22.63184,-13.76953 0,-4.39453 -2.63672,-7.25098 -2.56348,-2.85644 -7.32422,-4.76074 -4.6875,-1.9043 -18.09082,-4.61426 -11.57227,-2.70996 -16.113284,-4.32129 -4.541015,-1.68457 -8.203125,-3.88183 -3.662109,-2.27051 -6.225586,-5.41992 -2.563476,-3.14942 -4.02832,-7.39747 -1.391602,-4.24804 -1.391602,-9.74121 0,-13.98925 10.473633,-21.38672 10.546874,-7.4707 30.615234,-7.4707 19.18945,0 28.78418,6.00586 9.66797,6.00586 12.45117,19.84863 l -20.94726,2.85645 q -1.61133,-6.66504 -6.5918,-10.03418 -4.90723,-3.36914 -14.13574,-3.36914 -19.62891,0 -19.62891,12.30469 0,4.02832 2.05078,6.59179 2.12403,2.56348 6.22559,4.39453 4.10156,1.75782 16.62598,4.46778 14.86816,3.14941 21.24023,5.85937 6.44531,2.63672 10.18066,6.22559 3.73535,3.51562 5.71289,8.49609 1.97754,4.90723 1.97754,11.35254 z" fill="white"/>
<path d="m 264.23828,350.26367 q 0,15.16113 -11.2793,23.21778 -11.20605,7.98339 -32.95898,7.98339 -19.84863,0 -31.12793,-7.03125 -11.2793,-7.03125 -14.50195,-21.31347 l 20.87402,-3.44239 q 2.12402,8.20313 8.27637,11.93848 6.15234,3.66211 17.06543,3.66211 22.63183,0 22.63183,-13.76953 0,-4.39453 -2.63672,-7.25098 -2.56347,-2.85644 -7.32421,-4.76074 -4.6875,-1.9043 -18.09082,-4.61426 -11.57227,-2.70996 -16.11329,-4.32129 -4.54101,-1.68457 -8.20312,-3.88183 -3.66211,-2.27051 -6.22559,-5.41992 -2.56347,-3.14942 -4.02832,-7.39747 -1.3916,-4.24804 -1.3916,-9.74121 0,-13.98925 10.47363,-21.38672 10.54688,-7.4707 30.61524,-7.4707 19.18945,0 28.78418,6.00586 9.66797,6.00586 12.45117,19.84863 l -20.94727,2.85645 q -1.61132,-6.66504 -6.59179,-10.03418 -4.90723,-3.36914 -14.13574,-3.36914 -19.62891,0 -19.62891,12.30469 0,4.02832 2.05078,6.59179 2.12402,2.56348 6.22559,4.39453 4.10156,1.75782 16.62597,4.46778 14.86817,3.14941 21.24024,5.85937 6.44531,2.63672 10.18066,6.22559 3.73535,3.51562 5.71289,8.49609 1.97754,4.90723 1.97754,11.35254 z" fill="white"/>
<path d="m 346.70898,380 v -44.23828 h -44.9707 V 380 H 280.13184 V 276.80176 h 21.60644 v 41.08886 h 44.9707 v -41.08886 h 21.60645 V 380 Z" fill="white"/>
</svg>
